<svg width="229" height="33" viewBox="0 0 229 33" fill="none" xmlns="http://www.w3.org/2000/svg">
<path d="M0.233451 33H4.66902L17.5555 0.316887H13.1199L0.233451 33ZM9.6262 33H14.0618L26.9482 0.316887H22.5127L9.6262 33ZM19.0189 33H23.4545L36.341 0.316887H31.9054L19.0189 33ZM36.9414 4.9859H42.3108V33H47.4467V4.9859H52.8161V0.316887H36.9414V4.9859ZM71.046 33C70.5324 31.7861 70.4857 30.6188 70.4857 29.0313V23.9888C70.4857 20.5804 69.6453 18.1058 67.0773 17.032C69.3652 15.9581 70.439 13.7637 70.439 10.402V7.834C70.439 2.79147 68.1512 0.316887 62.8285 0.316887H55.078V33H60.2139V19.6933H61.9881C64.3226 19.6933 65.3498 20.8139 65.3498 23.8487V28.9846C65.3498 31.646 65.5366 32.1596 65.8167 33H71.046ZM62.6885 4.9859C64.5094 4.9859 65.3031 6.01309 65.3031 8.3476V11.5692C65.3031 14.1839 64.1359 15.0243 62.2216 15.0243H60.2139V4.9859H62.6885ZM85.2559 0.316887H77.7388L72.5095 33H77.2252L78.1123 27.0703H84.4154L85.3026 33H90.4852L85.2559 0.316887ZM81.2405 6.10647L83.7151 22.6348H78.7659L81.2405 6.10647ZM95.52 0.316887H90.3374L95.38 33H103.037L108.08 0.316887H103.364L99.442 26.977L95.52 0.316887ZM110.477 33H124.064V28.331H115.613V0.316887H110.477V33ZM134.049 0.316887H126.299V33H134.376C139.512 33 142.173 30.292 142.173 25.2494V22.5881C142.173 19.133 141.099 16.6584 138.345 15.5846C140.633 14.5107 141.66 12.3629 141.66 9.00126V7.834C141.66 2.79147 139.372 0.316887 134.049 0.316887ZM133.722 18.2926C136.057 18.2926 137.037 19.2264 137.037 22.2613V25.1094C137.037 27.5373 136.104 28.331 134.376 28.331H131.435V18.2926H133.722ZM133.909 4.9859C135.73 4.9859 136.524 6.01309 136.524 8.3476V10.1685C136.524 12.7832 135.357 13.6236 133.442 13.6236H131.435V4.9859H133.909ZM150.402 4.9859H159.274V0.316887H145.267V33H159.274V28.331H150.402V18.7595H157.453V14.0905H150.402V4.9859ZM160.962 4.9859H166.331V33H171.467V4.9859H176.837V0.316887H160.962V4.9859ZM177.605 4.9859H182.974V33H188.11V4.9859H193.479V0.316887H177.605V4.9859ZM200.877 4.9859H209.748V0.316887H195.741V33H209.748V28.331H200.877V18.7595H207.927V14.0905H200.877V4.9859ZM228.899 33C228.385 31.7861 228.339 30.6188 228.339 29.0313V23.9888C228.339 20.5804 227.498 18.1058 224.93 17.032C227.218 15.9581 228.292 13.7637 228.292 10.402V7.834C228.292 2.79147 226.004 0.316887 220.681 0.316887H212.931V33H218.067V19.6933H219.841C222.175 19.6933 223.203 20.8139 223.203 23.8487V28.9846C223.203 31.646 223.389 32.1596 223.67 33H228.899ZM220.541 4.9859C222.362 4.9859 223.156 6.01309 223.156 8.3476V11.5692C223.156 14.1839 221.989 15.0243 220.074 15.0243H218.067V4.9859H220.541Z" fill="#2BFEC7"/>
</svg>
